<?xml version="1.0" encoding="UTF-8" standalone="no"?>
<svg width="80px" height="93px" viewBox="0 0 80 93" version="1.1" xmlns="http://www.w3.org/2000/svg" xmlns:xlink="http://www.w3.org/1999/xlink" xmlns:sketch="http://www.bohemiancoding.com/sketch/ns">
    <!-- Generator: Sketch 3.4.4 (17249) - http://www.bohemiancoding.com/sketch -->
    <title>icon-drinks</title>
    <desc>Created with Sketch.</desc>
    <defs></defs>
    <g id="Page-1" stroke="none" stroke-width="1" fill="none" fill-rule="evenodd" sketch:type="MSPage">
        <g id="icon-drinks" sketch:type="MSLayerGroup" transform="translate(0.000000, 2.000000)" stroke="#BF331B" stroke-width="2">
            <path d="M66,48 L66,44 L0,44 L0,79.9954267 C0,86.0811167 4.92923665,91 11.0097582,91 L54.9902418,91 C61.0662646,91 66,86.0730847 66,79.9954267 L66,71 L73.9966691,71 C77.3219597,71 80,68.3146344 80,65.002068 L80,53.997932 C80,50.6834058 77.3122172,48 73.9966691,48 L66,48 Z" id="Rectangle-1" sketch:type="MSShapeGroup"></path>
            <rect id="Rectangle-4" sketch:type="MSShapeGroup" x="66" y="53" width="9" height="13" rx="3"></rect>
            <path d="M16.0109667,7.34086765 C16.0109667,7.34086765 19.9999993,10.3784805 20,15.0960705 C20.0000007,19.8136605 12.4139846,20.7401501 12.4139846,25.8284028 C12.4139846,30.9166556 16.0109666,33.8306005 16.0109666,33.8306005" id="Line" stroke-linecap="square" sketch:type="MSShapeGroup"></path>
            <path d="M32.5860157,0 C32.5860157,0 37.6718807,3.87284106 37.6718817,9.88758923 C37.6718826,15.9023374 28,17.0835764 28,23.5709055 C28,30.0582346 32.5860155,33.7734038 32.5860155,33.7734038" id="Line-Copy" stroke-linecap="square" sketch:type="MSShapeGroup"></path>
            <path d="M49.7932769,5.83807131 C49.7932769,5.83807131 53.9999992,9.04145299 54,14.0164917 C54.0000008,18.9915303 46,19.9685803 46,25.3345096 C46,30.7004389 49.7932767,33.7734038 49.7932767,33.7734038" id="Line-Copy-2" stroke-linecap="square" sketch:type="MSShapeGroup"></path>
        </g>
    </g>
</svg>