<?xml version="1.0" encoding="UTF-8" standalone="no"?>
<svg width="70px" height="84px" viewBox="0 0 70 84" version="1.1" xmlns="http://www.w3.org/2000/svg" xmlns:xlink="http://www.w3.org/1999/xlink" xmlns:sketch="http://www.bohemiancoding.com/sketch/ns">
    <!-- Generator: Sketch 3.4.4 (17249) - http://www.bohemiancoding.com/sketch -->
    <title>icon-pepper</title>
    <desc>Created with Sketch.</desc>
    <defs></defs>
    <g id="Page-1" stroke="none" stroke-width="1" fill="none" fill-rule="evenodd" sketch:type="MSPage">
        <g id="icon-pepper" sketch:type="MSLayerGroup" transform="translate(34.500000, 42.500000) rotate(-18.000000) translate(-34.500000, -42.500000) translate(-8.000000, 12.000000)" stroke="#BF331B">
            <path d="M72.109,20.628 C72.109,20.628 80.076,26.205 77.231,34.855 C74.386,43.507 58.108,57.28 24.19,53.183 C24.19,53.183 1.653,50.564 8.369,59.443 C8.369,59.443 4.271,63.425 1.198,54.776 C-1.875,46.126 12.58,37.816 13.263,37.475 C13.263,37.475 39.783,22.222 44.109,18.124 C48.435,14.027 63.572,1.848 72.109,20.628 L72.109,20.628 Z M71.199,19.149 C71.199,19.149 79.736,13.686 79.508,2.304 M74.613,22.905 C74.613,22.905 84.743,13.8 83.946,2.987 M81.827,4.153 C83.1077483,4.153 84.146,3.40755411 84.146,2.488 C84.146,1.56844589 83.1077483,0.823 81.827,0.823 C80.5462517,0.823 79.508,1.56844589 79.508,2.488 C79.508,3.40755411 80.5462517,4.153 81.827,4.153 Z" id="Shape" stroke-width="2" sketch:type="MSShapeGroup"></path>
            <path d="M68.5,37.834 C68.5,37.834 61.834,47.833 43.834,48.5" id="Shape" stroke-width="0.75" sketch:type="MSShapeGroup"></path>
        </g>
    </g>
</svg>